<svg width="171" height="31" viewBox="0 0 171 31" fill="none" xmlns="http://www.w3.org/2000/svg">
    <path fill-rule="evenodd" clip-rule="evenodd" d="M35.7694 7.21465C35.2605 5.47881 33.0785 4.92141 31.7995 6.20049L26.9801 11.0198C26.7841 11.2159 26.4897 11.0579 26.4111 10.792L26.1739 9.9904C26.0342 9.51825 26.164 9.0075 26.5122 8.65933L30.3853 4.78627C32.7384 2.43317 36.7524 3.45862 37.6886 6.652L39.5827 13.113L39.5886 13.134L42.3706 23.4524C42.6532 24.5005 43.6086 25.2249 44.694 25.2141L52.3165 25.1383C53.8632 25.1229 54.9851 23.6604 54.5994 22.1626L50.857 7.62828C50.3967 5.84084 48.1659 5.23374 46.8632 6.54151L46.5544 6.85155L46.5278 6.87824L46.4984 6.90779C45.3026 8.10831 44.1541 9.26131 42.7949 10.6255C42.7498 10.6707 42.6759 10.6471 42.6578 10.5859L42.238 9.16702C42.1232 8.77901 42.2296 8.35921 42.5151 8.07255C43.4215 7.16274 44.2575 6.32347 45.1195 5.45808L45.4463 5.13006C47.8427 2.72418 51.947 3.84092 52.7938 7.12956L56.5363 21.6639C57.2458 24.4194 55.1817 27.1099 52.3364 27.1382L44.7139 27.214C42.7171 27.2339 40.9594 25.9011 40.4395 23.973L37.6604 13.6652L35.7694 7.21465ZM19.662 7.7931C19.1337 5.98725 16.8185 5.47824 15.5814 6.89593L3.09672 21.2028C1.75222 22.7436 2.84647 25.1508 4.89135 25.1508H9.05214C9.68385 25.1508 10.2897 24.8998 10.7364 24.4531L18.5146 16.6749C18.649 16.5405 18.8567 16.6337 18.9106 16.816L19.2205 17.8632C19.3519 18.3075 19.2298 18.7881 18.9021 19.1158L12.1506 25.8673C11.3288 26.6891 10.2143 27.1508 9.05214 27.1508H4.89135C1.12941 27.1508 -0.883653 22.7223 1.5898 19.8879L14.0745 5.58094C16.3504 2.97285 20.6095 3.90927 21.5816 7.23145L23.2789 13.0324L25.4328 20.3936C25.9409 22.1302 28.1236 22.6884 29.403 21.4089L34.7065 16.1055C34.7838 16.0281 34.9074 16.0734 34.9384 16.1783L35.3172 17.4588C35.4389 17.8698 35.3259 18.3145 35.0227 18.6177L30.8172 22.8231C28.4634 25.1769 24.4481 24.1501 23.5133 20.9552L21.3594 13.594L19.662 7.7931Z" fill="url(#paint0_radial_1201_36233)"/>
    <path d="M88.3765 22.6016L88.3855 16.3826C88.3855 15.6566 88.1905 15.0896 87.8005 14.6816C87.4165 14.2676 86.9155 14.0606 86.2975 14.0606C85.9375 14.0606 85.5955 14.1446 85.2715 14.3126C84.9475 14.4746 84.6835 14.7326 84.4795 15.0866C84.2755 15.4346 84.1735 15.8816 84.1735 16.4276L83.3275 16.0856C83.3155 15.3956 83.4565 14.7926 83.7505 14.2766C84.0505 13.7546 84.4585 13.3496 84.9745 13.0616C85.4905 12.7736 86.0725 12.6296 86.7205 12.6296C87.7345 12.6296 88.5325 12.9386 89.1145 13.5566C89.6965 14.1686 89.9875 14.9936 89.9875 16.0316L89.9785 22.6016H88.3765ZM76.7485 22.6016V12.8816H78.1795V15.4826H78.3595V22.6016H76.7485ZM82.5715 22.6016L82.5805 16.4456C82.5805 15.7016 82.3885 15.1196 82.0045 14.6996C81.6205 14.2736 81.1105 14.0606 80.4745 14.0606C79.8445 14.0606 79.3345 14.2766 78.9445 14.7086C78.5545 15.1406 78.3595 15.7136 78.3595 16.4276L77.5135 15.9236C77.5135 15.2936 77.6635 14.7296 77.9635 14.2316C78.2635 13.7336 78.6715 13.3436 79.1875 13.0616C79.7035 12.7736 80.2885 12.6296 80.9425 12.6296C81.5965 12.6296 82.1665 12.7676 82.6525 13.0436C83.1385 13.3196 83.5135 13.7156 83.7775 14.2316C84.0415 14.7416 84.1735 15.3506 84.1735 16.0586L84.1645 22.6016H82.5715ZM98.1838 22.8716C97.2178 22.8716 96.3838 22.6526 95.6818 22.2146C94.9858 21.7766 94.4488 21.1706 94.0708 20.3966C93.6928 19.6226 93.5038 18.7346 93.5038 17.7326C93.5038 16.7126 93.6958 15.8186 94.0798 15.0506C94.4638 14.2826 95.0068 13.6856 95.7088 13.2596C96.4108 12.8276 97.2358 12.6116 98.1838 12.6116C99.1558 12.6116 99.9928 12.8306 100.695 13.2686C101.397 13.7006 101.934 14.3036 102.306 15.0776C102.684 15.8456 102.873 16.7306 102.873 17.7326C102.873 18.7466 102.684 19.6406 102.306 20.4146C101.928 21.1826 101.388 21.7856 100.686 22.2236C99.9838 22.6556 99.1498 22.8716 98.1838 22.8716ZM98.1838 21.3506C99.1918 21.3506 99.9418 21.0146 100.434 20.3426C100.926 19.6706 101.172 18.8006 101.172 17.7326C101.172 16.6346 100.923 15.7616 100.425 15.1136C99.9268 14.4596 99.1798 14.1326 98.1838 14.1326C97.5058 14.1326 96.9478 14.2856 96.5098 14.5916C96.0718 14.8976 95.7448 15.3206 95.5288 15.8606C95.3128 16.4006 95.2048 17.0246 95.2048 17.7326C95.2048 18.8246 95.4568 19.7006 95.9608 20.3606C96.4648 21.0206 97.2058 21.3506 98.1838 21.3506ZM105.403 22.6016V22.3136L111.298 14.3396H105.889V12.8816H113.881V13.1876L107.995 21.1436H113.575V22.6016H105.403ZM120.293 22.6016L116.765 12.8816H118.385L121.112 20.5586L123.83 12.8816H125.459L121.931 22.6016H120.293ZM132.748 22.8716C131.794 22.8716 130.96 22.6616 130.246 22.2416C129.538 21.8156 128.986 21.2246 128.59 20.4686C128.194 19.7066 127.996 18.8186 127.996 17.8046C127.996 16.7426 128.191 15.8246 128.581 15.0506C128.971 14.2706 129.514 13.6706 130.21 13.2506C130.912 12.8246 131.734 12.6116 132.676 12.6116C133.654 12.6116 134.485 12.8366 135.169 13.2866C135.859 13.7366 136.375 14.3786 136.717 15.2126C137.065 16.0466 137.215 17.0396 137.167 18.1916H135.547V17.6156C135.529 16.4216 135.286 15.5306 134.818 14.9426C134.35 14.3486 133.654 14.0516 132.73 14.0516C131.74 14.0516 130.987 14.3696 130.471 15.0056C129.955 15.6416 129.697 16.5536 129.697 17.7416C129.697 18.8876 129.955 19.7756 130.471 20.4056C130.987 21.0356 131.722 21.3506 132.676 21.3506C133.318 21.3506 133.876 21.2036 134.35 20.9096C134.824 20.6156 135.196 20.1926 135.466 19.6406L137.005 20.1716C136.627 21.0296 136.057 21.6956 135.295 22.1696C134.539 22.6376 133.69 22.8716 132.748 22.8716ZM129.157 18.1916V16.9046H136.339V18.1916H129.157ZM140.97 22.6016V12.8816H142.401V15.2306L142.167 14.9246C142.281 14.6246 142.428 14.3486 142.608 14.0966C142.794 13.8446 143.001 13.6376 143.229 13.4756C143.481 13.2716 143.766 13.1156 144.084 13.0076C144.402 12.8996 144.726 12.8366 145.056 12.8186C145.386 12.7946 145.695 12.8156 145.983 12.8816V14.3846C145.647 14.2946 145.278 14.2706 144.876 14.3126C144.474 14.3546 144.102 14.5016 143.76 14.7536C143.448 14.9756 143.205 15.2456 143.031 15.5636C142.863 15.8816 142.746 16.2266 142.68 16.5986C142.614 16.9646 142.581 17.3396 142.581 17.7236V22.6016H140.97ZM152.806 22.8626C151.648 22.8626 150.697 22.6106 149.953 22.1066C149.215 21.5966 148.762 20.8856 148.594 19.9736L150.232 19.7126C150.364 20.2406 150.667 20.6606 151.141 20.9726C151.615 21.2786 152.203 21.4316 152.905 21.4316C153.571 21.4316 154.093 21.2936 154.471 21.0176C154.849 20.7416 155.038 20.3666 155.038 19.8926C155.038 19.6166 154.975 19.3946 154.849 19.2266C154.723 19.0526 154.462 18.8906 154.066 18.7406C153.676 18.5906 153.085 18.4106 152.293 18.2006C151.435 17.9726 150.76 17.7356 150.268 17.4896C149.776 17.2436 149.425 16.9586 149.215 16.6346C149.005 16.3106 148.9 15.9176 148.9 15.4556C148.9 14.8856 149.056 14.3876 149.368 13.9616C149.68 13.5296 150.115 13.1966 150.673 12.9626C151.237 12.7286 151.891 12.6116 152.635 12.6116C153.373 12.6116 154.033 12.7286 154.615 12.9626C155.197 13.1966 155.665 13.5296 156.019 13.9616C156.379 14.3876 156.592 14.8856 156.658 15.4556L155.02 15.7526C154.942 15.2306 154.69 14.8196 154.264 14.5196C153.844 14.2196 153.301 14.0606 152.635 14.0426C152.005 14.0186 151.492 14.1296 151.096 14.3756C150.706 14.6216 150.511 14.9546 150.511 15.3746C150.511 15.6086 150.583 15.8096 150.727 15.9776C150.877 16.1456 151.15 16.3046 151.546 16.4546C151.948 16.6046 152.53 16.7756 153.292 16.9676C154.15 17.1836 154.825 17.4206 155.317 17.6786C155.815 17.9306 156.169 18.2306 156.379 18.5786C156.589 18.9206 156.694 19.3436 156.694 19.8476C156.694 20.7836 156.349 21.5216 155.659 22.0616C154.969 22.5956 154.018 22.8626 152.806 22.8626ZM164.691 22.8716C163.737 22.8716 162.903 22.6616 162.189 22.2416C161.481 21.8156 160.929 21.2246 160.533 20.4686C160.137 19.7066 159.939 18.8186 159.939 17.8046C159.939 16.7426 160.134 15.8246 160.524 15.0506C160.914 14.2706 161.457 13.6706 162.153 13.2506C162.855 12.8246 163.677 12.6116 164.619 12.6116C165.597 12.6116 166.428 12.8366 167.112 13.2866C167.802 13.7366 168.318 14.3786 168.66 15.2126C169.008 16.0466 169.158 17.0396 169.11 18.1916H167.49V17.6156C167.472 16.4216 167.229 15.5306 166.761 14.9426C166.293 14.3486 165.597 14.0516 164.673 14.0516C163.683 14.0516 162.93 14.3696 162.414 15.0056C161.898 15.6416 161.64 16.5536 161.64 17.7416C161.64 18.8876 161.898 19.7756 162.414 20.4056C162.93 21.0356 163.665 21.3506 164.619 21.3506C165.261 21.3506 165.819 21.2036 166.293 20.9096C166.767 20.6156 167.139 20.1926 167.409 19.6406L168.948 20.1716C168.57 21.0296 168 21.6956 167.238 22.1696C166.482 22.6376 165.633 22.8716 164.691 22.8716ZM161.1 18.1916V16.9046H168.282V18.1916H161.1Z" fill="#101828"/>
    <defs>
        <radialGradient id="paint0_radial_1201_36233" cx="0" cy="0" r="1" gradientUnits="userSpaceOnUse" gradientTransform="translate(32.3727 13.6159) rotate(57.6785) scale(25.5918 63.7141)">
            <stop offset="0.0599477" stop-color="#222222"/>
            <stop offset="0.479167" stop-color="#464646"/>
            <stop offset="0.908099" stop-color="#1B1B1B"/>
        </radialGradient>
    </defs>
</svg>
