<svg width="81" height="86" viewBox="0 0 81 86" fill="none" xmlns="http://www.w3.org/2000/svg">
    <path d="M62.3903 19.0381L72.7924 45.2168C73.697 47.4932 73.2806 50.2907 71.8459 52.1734L56.4419 71.6362C55.6112 72.8416 54.2524 73.8166 52.9315 74.3377L39.9665 41.7092L60.1654 16.1854C61.1083 16.9106 61.938 17.8999 62.3903 19.0381Z" fill="white"/>
    <path d="M62.3903 19.0381L72.7924 45.2168C73.697 47.4932 73.2806 50.2907 71.8459 52.1734L56.4419 71.6362C55.6112 72.8416 54.2524 73.8166 52.9315 74.3377L39.9665 41.7092L60.1654 16.1854C61.1083 16.9106 61.938 17.8999 62.3903 19.0381Z" fill="url(#paint0_linear_325_20813)" fill-opacity="0.84"/>
    <path d="M39.9096 41.7705L52.8746 74.399C51.5537 74.9201 50.0821 75.0618 48.4597 74.8241L23.8596 71.1435C21.3316 70.8242 19.3703 69.1841 18.3904 66.718L7.98821 40.5394C7.53595 39.4012 7.46107 38.1141 7.65028 36.9422L39.9096 41.7705Z" fill="white"/>
    <path d="M39.9096 41.7705L52.8746 74.399C51.5537 74.9201 50.0821 75.0618 48.4597 74.8241L23.8596 71.1435C21.3316 70.8242 19.3703 69.1841 18.3904 66.718L7.98821 40.5394C7.53595 39.4012 7.46107 38.1141 7.65028 36.9422L39.9096 41.7705Z" fill="url(#paint1_linear_325_20813)"/>
    <path d="M60.215 16.2164L39.9854 41.7781L7.67112 36.9457C7.86062 35.7721 7.98102 34.4059 8.88845 33.3886L24.7318 13.2932C26.1687 11.4078 28.6255 10.4386 31.0818 10.5683L57.1548 14.5668C57.1548 14.5668 57.6334 14.6291 58.2198 14.8375C58.8061 15.046 59.4595 15.4156 60.215 16.2164Z" fill="white"/>
    <path d="M60.215 16.2164L39.9854 41.7781L7.67112 36.9457C7.86062 35.7721 7.98102 34.4059 8.88845 33.3886L24.7318 13.2932C26.1687 11.4078 28.6255 10.4386 31.0818 10.5683L57.1548 14.5668C57.1548 14.5668 57.6334 14.6291 58.2198 14.8375C58.8061 15.046 59.4595 15.4156 60.215 16.2164Z" fill="url(#paint2_linear_325_20813)" fill-opacity="0.74"/>
    <defs>
        <linearGradient id="paint0_linear_325_20813" x1="47.5254" y1="21.1721" x2="66.4009" y2="69.017" gradientUnits="userSpaceOnUse">
            <stop stop-color="#FEE6A7"/>
            <stop offset="1" stop-color="#78B3F3"/>
        </linearGradient>
        <linearGradient id="paint1_linear_325_20813" x1="20.296" y1="31.9533" x2="39.1715" y2="79.7982" gradientUnits="userSpaceOnUse">
            <stop stop-color="#D994B2"/>
            <stop offset="1" stop-color="#7F9EF3"/>
        </linearGradient>
        <linearGradient id="paint2_linear_325_20813" x1="27.6948" y1="11.106" x2="39.8194" y2="41.8392" gradientUnits="userSpaceOnUse">
            <stop stop-color="#D7BF91"/>
            <stop offset="1" stop-color="#72C5F3"/>
        </linearGradient>
    </defs>
</svg>
