<svg width="40" height="41" viewBox="0 0 40 41" fill="none" xmlns="http://www.w3.org/2000/svg">
    <g filter="url(#filter0_f_325_20817)">
        <path d="M35.6692 17.7434L32.183 30.8527C31.8799 31.9926 30.9228 32.9613 29.8371 33.2867L18.3942 36.4889C17.7326 36.7222 16.9348 36.7165 16.2809 36.5453C15.627 36.3741 15.0236 36.0129 14.4708 35.4617L6.10979 27.0746C5.2338 26.2356 4.9512 25.0439 5.2796 23.809L8.76576 10.6997C8.91733 10.1297 9.25573 9.60869 9.66229 9.20709C10.0688 8.80549 10.5688 8.42834 11.2051 8.2901L22.9788 4.97128C24.0645 4.64589 25.2789 4.96382 26.1801 5.70783C26.1801 5.70783 26.2736 5.73229 26.2483 5.82728L34.9324 14.5022C34.9324 14.5022 35.0258 14.5267 35.0005 14.6217C35.0005 14.6217 35.0005 14.6217 35.094 14.6461C35.4852 15.0534 35.6644 15.5068 35.8184 16.0551C35.7855 16.5545 35.846 17.0784 35.6692 17.7434Z" fill="white"/>
        <path d="M35.8286 17.6255L32.3466 30.7911C32.0439 31.9359 31.0817 32.9072 29.9884 33.2316L18.465 36.4227C17.7989 36.6555 16.9949 36.648 16.3355 36.4744L20.6753 20.0651L35.7865 15.8796C35.943 16.4311 35.98 17.0531 35.8286 17.6255Z" fill="white"/>
        <path d="M35.8286 17.6255L32.3466 30.7911C32.0439 31.9359 31.0817 32.9072 29.9884 33.2316L18.465 36.4227C17.7989 36.6555 16.9949 36.648 16.3355 36.4744L20.6753 20.0651L35.7865 15.8796C35.943 16.4311 35.98 17.0531 35.8286 17.6255Z" fill="url(#paint0_linear_325_20817)" fill-opacity="0.84"/>
        <path d="M20.5788 20.0324L16.239 36.4416C15.5797 36.2681 14.9708 35.9037 14.4124 35.3485L5.96714 26.9004C5.08242 26.0553 4.79481 24.857 5.12282 23.6168L8.60476 10.4512C8.75615 9.87878 9.09592 9.35595 9.50465 8.95333L20.5788 20.0324Z" fill="white"/>
        <path d="M20.5788 20.0324L16.239 36.4416C15.5797 36.2681 14.9708 35.9037 14.4124 35.3485L5.96714 26.9004C5.08242 26.0553 4.79481 24.857 5.12282 23.6168L8.60476 10.4512C8.75615 9.87878 9.09592 9.35595 9.50465 8.95333L20.5788 20.0324Z" fill="url(#paint1_linear_325_20817)"/>
        <path d="M35.7718 15.9147L20.6017 20.1161L9.48089 8.99332C9.89122 8.58914 10.3301 8.08997 10.9735 7.95202L22.8762 4.63185C23.9738 4.30616 25.2031 4.62979 26.1166 5.38248L35.0609 14.3958C35.0609 14.3958 35.2283 14.5569 35.3954 14.8059C35.5625 15.0549 35.7093 15.386 35.7718 15.9147Z" fill="white"/>
        <path d="M35.7718 15.9147L20.6017 20.1161L9.48089 8.99332C9.89122 8.58914 10.3301 8.08997 10.9735 7.95202L22.8762 4.63185C23.9738 4.30616 25.2031 4.62979 26.1166 5.38248L35.0609 14.3958C35.0609 14.3958 35.2283 14.5569 35.3954 14.8059C35.5625 15.0549 35.7093 15.386 35.7718 15.9147Z" fill="url(#paint2_linear_325_20817)" fill-opacity="0.74"/>
    </g>
    <defs>
        <filter id="filter0_f_325_20817" x="0.991455" y="0.505615" width="38.9333" height="40.1638" filterUnits="userSpaceOnUse" color-interpolation-filters="sRGB">
            <feFlood flood-opacity="0" result="BackgroundImageFix"/>
            <feBlend mode="normal" in="SourceGraphic" in2="BackgroundImageFix" result="shape"/>
            <feGaussianBlur stdDeviation="2" result="effect1_foregroundBlur_325_20817"/>
        </filter>
        <linearGradient id="paint0_linear_325_20817" x1="29.4771" y1="14.2186" x2="23.1468" y2="38.2643" gradientUnits="userSpaceOnUse">
            <stop stop-color="#FEE6A7"/>
            <stop offset="1" stop-color="#78B3F3"/>
        </linearGradient>
        <linearGradient id="paint1_linear_325_20817" x1="15.817" y1="10.6151" x2="9.48668" y2="34.6608" gradientUnits="userSpaceOnUse">
            <stop stop-color="#D994B2"/>
            <stop offset="1" stop-color="#7F9EF3"/>
        </linearGradient>
        <linearGradient id="paint2_linear_325_20817" x1="24.6512" y1="4.62447" x2="20.5752" y2="20.1071" gradientUnits="userSpaceOnUse">
            <stop stop-color="#D7BF91"/>
            <stop offset="1" stop-color="#72C5F3"/>
        </linearGradient>
    </defs>
</svg>
