<svg width="82" height="81" viewBox="0 0 82 81" fill="none" xmlns="http://www.w3.org/2000/svg">
    <path d="M56.8504 15.8062L70.7823 36.9209C71.9938 38.757 72.1315 41.2954 71.2032 43.2168L61.1013 63.1858C60.5847 64.3998 59.5594 65.5085 58.4856 66.2109C57.4119 66.9132 56.1362 67.3096 54.6585 67.3999L32.24 68.7023C29.9469 68.8879 27.916 67.8069 26.6035 65.8178L12.6716 44.7031C12.0659 43.7851 11.7669 42.6664 11.7224 41.6003C11.6778 40.5343 11.7866 39.3679 12.4041 38.3069L22.7643 17.7309C23.6926 15.8095 25.6868 14.5051 27.8789 14.1664C27.8789 14.1664 28.0323 14.0661 28.1333 14.2191L51.3673 12.8214C51.3673 12.8214 51.5207 12.7211 51.6217 12.8741C51.6217 12.8741 51.6217 12.8741 51.7751 12.7737C52.845 12.7311 53.709 13.0421 54.674 13.5061C55.3321 14.1708 56.1437 14.7351 56.8504 15.8062Z" fill="white"/>
    <path d="M56.6618 15.4198L70.7135 36.752C71.9354 38.607 72.0802 41.1677 71.1524 43.1033L61.053 63.2192C60.537 64.4424 59.5097 65.5581 58.4326 66.2638L40.9189 39.6758L54.1614 13.296C55.1322 13.7665 56.0509 14.4923 56.6618 15.4198Z" fill="white"/>
    <path d="M56.6618 15.4198L70.7135 36.752C71.9354 38.607 72.0802 41.1677 71.1524 43.1033L61.053 63.2192C60.537 64.4424 59.5097 65.5581 58.4326 66.2638L40.9189 39.6758L54.1614 13.296C55.1322 13.7665 56.0509 14.4923 56.6618 15.4198Z" fill="url(#paint0_linear_325_20829)" fill-opacity="0.84"/>
    <path d="M40.8813 39.7416L58.395 66.3296C57.3179 67.0353 56.0371 67.4319 54.5527 67.5193L32.0308 68.7763C29.7273 68.9578 27.684 67.8623 26.3603 65.8527L12.3086 44.5205C11.6977 43.593 11.3945 42.4639 11.347 41.3885L40.8813 39.7416Z" fill="white"/>
    <path d="M40.8813 39.7416L58.395 66.3296C57.3179 67.0353 56.0371 67.4319 54.5527 67.5193L32.0308 68.7763C29.7273 68.9578 27.684 67.8623 26.3603 65.8527L12.3086 44.5205C11.6977 43.593 11.3945 42.4639 11.347 41.3885L40.8813 39.7416Z" fill="url(#paint1_linear_325_20829)"/>
    <path d="M54.2121 13.3143L40.9495 39.7331L11.366 41.3863C11.3184 40.3094 11.1741 39.0741 11.7928 38.0039L22.1659 17.2458C23.0951 15.3073 25.0984 13.9947 27.3034 13.6581L51.1913 12.4124C51.1913 12.4124 51.6278 12.3797 52.1868 12.4569C52.7458 12.5341 53.394 12.7422 54.2121 13.3143Z" fill="white"/>
    <path d="M54.2121 13.3143L40.9495 39.7331L11.366 41.3863C11.3184 40.3094 11.1741 39.0741 11.7928 38.0039L22.1659 17.2458C23.0951 15.3073 25.0984 13.9947 27.3034 13.6581L51.1913 12.4124C51.1913 12.4124 51.6278 12.3797 52.1868 12.4569C52.7458 12.5341 53.394 12.7422 54.2121 13.3143Z" fill="url(#paint2_linear_325_20829)" fill-opacity="0.74"/>
    <defs>
        <linearGradient id="paint0_linear_325_20829" x1="43.8542" y1="20.0491" x2="69.4145" y2="59.0617" gradientUnits="userSpaceOnUse">
            <stop stop-color="#D595B6"/>
            <stop offset="1" stop-color="#8B9DEB"/>
        </linearGradient>
        <linearGradient id="paint1_linear_325_20829" x1="21.6589" y1="34.6323" x2="47.2193" y2="73.6448" gradientUnits="userSpaceOnUse">
            <stop stop-color="#FAE8B8"/>
            <stop offset="1" stop-color="#9AC4EE"/>
        </linearGradient>
        <linearGradient id="paint2_linear_325_20829" x1="24.3947" y1="14.7586" x2="40.8131" y2="39.818" gradientUnits="userSpaceOnUse">
            <stop stop-color="#5591FF"/>
            <stop offset="1" stop-color="#377DFF"/>
        </linearGradient>
    </defs>
</svg>
