<svg width="99" height="95" viewBox="0 0 99 95" fill="none" xmlns="http://www.w3.org/2000/svg">
    <g filter="url(#filter0_f_325_20823)">
        <path d="M27.214 16.5124L59.1783 10.2918C61.9578 9.75088 65.0602 10.8394 66.9112 12.8967L85.9295 34.821C87.1327 36.0373 87.9649 37.8094 88.2878 39.4388C88.6107 41.0682 88.4703 42.7878 87.8667 44.5975L78.6267 72.0212C77.7443 74.8521 75.4731 76.7446 72.462 77.3306L40.4977 83.5512C39.1079 83.8216 37.626 83.6265 36.3295 83.1536C35.033 82.6807 33.6903 81.975 32.7187 80.7135L13.0988 58.181C11.2478 56.1238 10.6482 53.0977 11.299 50.3118C11.299 50.3118 11.2529 50.079 11.4845 50.034L21.0032 21.589C21.0032 21.589 20.9571 21.3563 21.1887 21.3112C21.1887 21.3112 21.1887 21.3112 21.1426 21.0784C21.6069 19.7793 22.395 18.9007 23.4148 17.977C24.5268 17.5188 25.5926 16.8279 27.214 16.5124Z" fill="white"/>
        <path d="M26.7687 16.5641L59.052 10.2535C61.8592 9.70477 64.9896 10.7942 66.8548 12.8601L86.018 34.8772C87.2307 36.0985 88.0679 37.8792 88.391 39.5174L48.1539 47.3827L23.0226 18.5116C24.0538 17.5809 25.3651 16.8385 26.7687 16.5641Z" fill="white"/>
        <path d="M26.7687 16.5641L59.052 10.2535C61.8592 9.70477 64.9896 10.7942 66.8548 12.8601L86.018 34.8772C87.2307 36.0985 88.0679 37.8792 88.391 39.5174L48.1539 47.3827L23.0226 18.5116C24.0538 17.5809 25.3651 16.8385 26.7687 16.5641Z" fill="url(#paint0_linear_325_20823)" fill-opacity="0.84"/>
        <path d="M48.1122 47.3111L88.3493 39.4458C88.6724 41.0839 88.5277 42.8136 87.9151 44.6346L78.538 72.2307C77.6421 75.0793 75.3458 76.9865 72.3046 77.581L40.0214 83.8916C38.6177 84.1659 37.1218 83.9723 35.8136 83.4988L48.1122 47.3111Z" fill="white"/>
        <path d="M48.1122 47.3111L88.3493 39.4458C88.6724 41.0839 88.5277 42.8136 87.9151 44.6346L78.538 72.2307C77.6421 75.0793 75.3458 76.9865 72.3046 77.581L40.0214 83.8916C38.6177 84.1659 37.1218 83.9723 35.8136 83.4988L48.1122 47.3111Z" fill="url(#paint1_linear_325_20823)"/>
        <path d="M22.9848 18.5476L48.0887 47.3852L35.8054 83.5389C34.4986 83.066 32.9565 82.6309 31.9788 81.3654L12.2308 58.7638C10.3676 56.7003 9.76816 53.6616 10.4293 50.8619L20.4542 21.7126C20.4542 21.7126 20.6255 21.1751 20.9869 20.5453C21.3483 19.9155 21.9086 19.2434 22.9848 18.5476Z" fill="white"/>
        <path d="M22.9848 18.5476L48.0887 47.3852L35.8054 83.5389C34.4986 83.066 32.9565 82.6309 31.9788 81.3654L12.2308 58.7638C10.3676 56.7003 9.76816 53.6616 10.4293 50.8619L20.4542 21.7126C20.4542 21.7126 20.6255 21.1751 20.9869 20.5453C21.3483 19.9155 21.9086 19.2434 22.9848 18.5476Z" fill="url(#paint2_linear_325_20823)" fill-opacity="0.74"/>
    </g>
    <defs>
        <filter id="filter0_f_325_20823" x="0.169434" y="0.112305" width="98.3472" height="93.9053" filterUnits="userSpaceOnUse" color-interpolation-filters="sRGB">
            <feFlood flood-opacity="0" result="BackgroundImageFix"/>
            <feBlend mode="normal" in="SourceGraphic" in2="BackgroundImageFix" result="shape"/>
            <feGaussianBlur stdDeviation="5" result="effect1_foregroundBlur_325_20823"/>
        </filter>
        <linearGradient id="paint0_linear_325_20823" x1="26.1147" y1="34.1877" x2="85.0396" y2="22.5649" gradientUnits="userSpaceOnUse">
            <stop stop-color="#D595B6"/>
            <stop offset="1" stop-color="#8B9DEB"/>
        </linearGradient>
        <linearGradient id="paint1_linear_325_20823" x1="32.7201" y1="67.8156" x2="91.645" y2="56.1928" gradientUnits="userSpaceOnUse">
            <stop stop-color="#FAE8B8"/>
            <stop offset="1" stop-color="#9AC4EE"/>
        </linearGradient>
        <linearGradient id="paint2_linear_325_20823" x1="10.3397" y1="54.8779" x2="48.0927" y2="47.4306" gradientUnits="userSpaceOnUse">
            <stop stop-color="#5591FF"/>
            <stop offset="1" stop-color="#377DFF"/>
        </linearGradient>
    </defs>
</svg>
